<?xml version="1.0" encoding="UTF-8"?>
<svg width="24px" height="24px" viewBox="0 0 24 24" version="1.1" xmlns="http://www.w3.org/2000/svg" xmlns:xlink="http://www.w3.org/1999/xlink">
    <title>UI Icons /social_GoogleWhite</title>
    <g id="UI-Icons-/social_GoogleWhite" stroke="none" stroke-width="1" fill="none" fill-rule="evenodd">
        <g id="Group" transform="translate(2.000000, 2.000000)" fill="#FFFFFF" fill-rule="nonzero">
            <g id="Group-17">
                <path d="M9.89309243,-7.77156117e-16 C12.5616639,-7.77156117e-16 14.7972941,0.979495803 16.5122521,2.57445378 L16.5122521,2.57445378 L13.6885546,5.39546218 C12.6579664,4.4122689 11.3509076,3.9117647 9.89309243,3.9117647 C7.3127563,3.9117647 5.1225042,5.64890756 4.33897479,7.9907563 C4.13865546,8.58820168 4.02873949,9.22517647 4.02873949,9.88231929 C4.02873949,10.5401345 4.13865546,11.1771093 4.33899159,11.773916 C5.1225042,14.1158151 7.3127563,15.8537983 9.89309243,15.8537983 C11.2302353,15.8537983 12.3735967,15.5047227 13.2611597,14.9072437 L13.2611597,14.9072437 L13.4669616,14.7612283 C14.404418,14.0588799 15.0228964,13.0621008 15.2368572,11.9039832 L15.2368572,11.9039832 L9.89315966,11.9039832 L9.89315966,8.0977647 L19.2230757,8.0977647 C19.3345042,8.74045378 19.3933278,9.41188235 19.3933278,10.1078487 C19.3933278,13.1147395 18.3176975,15.6582689 16.4504706,17.3789412 L16.4504706,17.3789412 L16.449,17.378 C14.8854301,18.8212544 12.766259,19.6851071 10.2545595,19.7606593 L9.89309243,19.7660672 C6.02805042,19.7660672 2.6814958,17.5485882 1.05342857,14.3196807 L1.05342857,14.3196807 L0.903382535,14.0089951 C0.324216598,12.7543237 -6.4900342e-16,11.3559845 -6.4900342e-16,9.88231929 C-6.4900342e-16,8.2860168 0.380504202,6.77929411 1.05344538,5.44484033 L1.05344538,5.44484033 L1.1930531,5.17818211 C2.86781556,2.09472585 6.1354127,-7.77156117e-16 9.89309243,-7.77156117e-16 Z" id="Combined-Shape"></path>
            </g>
        </g>
    </g>
</svg>